# xmcd
#
# Track frame offsets:
#	150
#	22792
#	42667
#	62112
#	78970
#	96577
#	111070
#	130704
#	154895
#	174465
#
# Disc length: 2568 seconds
#
# Revision: 2050006606
# Processed by: cddbd v1.5.2PL0 Copyright (c) Steve Scherf et al.
# Submitted via: EZCDAudioConverter 8.0.2.1
#
DISCID=7c0a060a
DTITLE=Various Artist - Liên Khúc Paris By Night 4
DYEAR=1995
DGENRE=
TTITLE0=Phi Phi, Bảo Hân, Ngọc Thúy - Những bước chân âm thầm
TTITLE1=Mỹ Lan - Người tình mùa đông
TTITLE2=Don Hồ - Trái tim ngục tù
TTITLE3=Mỹ Lan - Cô bé dỗi hờn
TTITLE4=Mỹ Linh - Cần có anh yêu
TTITLE5=Bảo Hân, Jenny Loan, Phi Phi - Cha-Cha-Cha
TTITLE6=Dalena - Tình lỡ
TTITLE7=Nguyễn Hưng, Kỳ Duyên - LK Bước tình hồng
TTITLE8=Thanh Lan, Franck Olivier - T'aimer
TTITLE9=Mỹ Lan - Tặng nhau đóa hồng
EXTD=
EXTT0=
EXTT1=
EXTT2=
EXTT3=
EXTT4=
EXTT5=
EXTT6=
EXTT7=
EXTT8=
EXTT9=
PLAYORDER=
